<svg width="390" height="857" viewBox="0 0 390 857" fill="none" xmlns="http://www.w3.org/2000/svg">
<path d="M320.938 239.324C436.719 350.028 228.516 412.996 212.266 526.746C196.016 640.496 25.3906 551.121 0 676.043V213.934C88.3594 197.684 205.156 128.621 320.938 239.324Z" fill="url(#paint0_linear_90_6250)"/>
<path d="M174.019 711.953C190.269 598.203 360.894 687.578 386.285 562.656V856.172H70.7466C110.322 812.581 165.933 768.553 174.019 711.953Z" fill="url(#paint1_linear_90_6250)"/>
<path d="M312.667 343.052C290.873 308.975 267.036 343.747 273.165 377.128C273.165 387.791 279.295 410.091 303.813 413.985C334.461 418.853 334.461 377.128 312.667 343.052Z" fill="url(#paint2_linear_90_6250)"/>
<path d="M212.266 256.953C231.563 258.984 236.641 275.234 230.547 281.328C224.453 287.422 193.984 262.031 212.266 256.953Z" fill="url(#paint3_linear_90_6250)"/>
<path d="M198.047 128.984C123.297 102.984 95.1302 32.1615 90.3906 0H390V405.234C372.057 399.141 335.969 372.938 335.156 316.875C334.141 246.797 291.484 161.484 198.047 128.984Z" fill="url(#paint4_linear_90_6250)"/>
<defs>
<linearGradient id="paint0_linear_90_6250" x1="128.984" y1="581.59" x2="255.09" y2="302.942" gradientUnits="userSpaceOnUse">
<stop stop-color="white" stop-opacity="0.69"/>
<stop offset="1" stop-color="white" stop-opacity="0"/>
<stop offset="1" stop-color="white" stop-opacity="0"/>
</linearGradient>
<linearGradient id="paint1_linear_90_6250" x1="351.406" y1="652.031" x2="115.478" y2="663.8" gradientUnits="userSpaceOnUse">
<stop stop-color="white" stop-opacity="0.1"/>
<stop offset="1" stop-color="white" stop-opacity="0"/>
<stop offset="1" stop-color="white" stop-opacity="0"/>
</linearGradient>
<linearGradient id="paint2_linear_90_6250" x1="277.396" y1="343.169" x2="317.279" y2="378.71" gradientUnits="userSpaceOnUse">
<stop stop-color="white"/>
<stop offset="1" stop-color="white" stop-opacity="0"/>
</linearGradient>
<linearGradient id="paint3_linear_90_6250" x1="208.966" y1="261.139" x2="220.171" y2="277.095" gradientUnits="userSpaceOnUse">
<stop stop-color="white" stop-opacity="0.28"/>
<stop offset="1" stop-color="white" stop-opacity="0"/>
</linearGradient>
<linearGradient id="paint4_linear_90_6250" x1="118.326" y1="67.0073" x2="309.028" y2="258.9" gradientUnits="userSpaceOnUse">
<stop stop-color="white" stop-opacity="0.56"/>
<stop offset="1" stop-color="white" stop-opacity="0"/>
</linearGradient>
</defs>
</svg>
