<svg xmlns="http://www.w3.org/2000/svg" width="526" height="621" fill="none" viewBox="0 0 526 621">
  <path fill="#000" stroke="#000" d="m342.31 377.722-124.5-155c-4.333-7.834-9-26.7 7-39.5s32.667-5.334 39 0l127 154c50 84 5.834 152.666-22.5 176.5-97 76.5-175.5 4.5-187.5-7.5s-29-37-68-83.5-76.06-22.222-90.5-11c-14.44 11.221-35.5 48-9.5 82.5s110 130.5 250 126 223.501-89.5 250.001-127.5c21.2-30.4 7.499-61-2.001-72.5l-218.5-268.5c-16.166-13.834-57.7-33.2-94.5 0s-25.666 76.833-15.5 94.5l121.5 148c5.5 8.5 12.2 29-5 43s-35.833 4.5-43-2l-125-154c-44.4-89.2.167-155.5 28-177.5 79.6-60.4 153.5-20.834 180.5 6.5 27.56 30.382 40.815 46.315 61 73 14.317 19.757 54.507 58.51 99.5 25.5 47.158-34.598 16.334-82.334-3.5-100-199.2-196-396.666-81.667-470.5 0-34 32.4-26.5 70.166-18.5 85l223.5 275.5c15.5 13 56.1 31.2 94.5 0s27.334-74 17-91.5Z"/>
</svg>
